<svg fill="#123C2A" id="Layer_1" viewBox="0 0 128 128" xmlns="http://www.w3.org/2000/svg" data-name="Layer 1"><path d="m45.58972 39.835a1.50263 1.50263 0 0 0 -.32672.20209c-.02551.02014-.05011.03979-.07416.06152a1.47735 1.47735 0 0 0 -.255.28937c-.00452.00684-.007.01477-.01129.02167a1.50072 1.50072 0 0 0 -.12665.24273l-6.38281 15.96a1.49944 1.49944 0 0 0 .83593 1.94922l15.95472 6.38074.003.00116.00225.00092a1.42271 1.42271 0 0 0 .94373.04974c.03333-.009.065-.01917.0976-.03033.03521-.012.07153-.01838.10614-.03309l10.085-4.32226a1.49754 1.49754 0 0 0 .80175-.82227l6.38379-15.96c.00891-.02221.00836-.04584.01618-.0683a1.48861 1.48861 0 0 0 .05121-.21661 1.472 1.472 0 0 0 .03033-.21991c.00085-.02405.01-.04614.00971-.07037-.00062-.04908-.01783-.09394-.02314-.142a1.47627 1.47627 0 0 0 -.03613-.22187 1.45543 1.45543 0 0 0 -.07516-.20325 1.14663 1.14663 0 0 0 -.23053-.37244c-.03125-.03717-.052-.08075-.08722-.11517-.01758-.01721-.04016-.02594-.05841-.04212a2.32955 2.32955 0 0 0 -.37323-.24237c-.02124-.0097-.03772-.02612-.05957-.03485l-15.96096-6.38379a1.49777 1.49777 0 0 0 -1.14746.01368l-10.085 4.32324zm1.43469 3.32422 13.17481 5.26855-5.26953 13.17379-13.17383-5.26856zm17.66407 14.93648-6.18537 2.6503 1.37842-3.44623 3.42987-8.57391 2.60578-1.11676 3.57989-1.53393zm-8.39548-19.58691 12.02148 4.80859-.379.16248-5.80648 2.48852-3.5636-1.425-8.4578-3.38231z"/><path d="m69.65234 64.25879-5.706 9.37207a1.504 1.504 0 0 0 -.154.36621c-.00837.02893-.01624.057-.02283.08624a1.47686 1.47686 0 0 0 -.04047.38916l.00147.01068a1.50749 1.50749 0 0 0 .03912.28247l4.05947 16.70313a1.50283 1.50283 0 0 0 1.8125 1.10352l16.70313-4.06055.01672-.00592c.01642-.00421.03131-.01209.04755-.01679a1.49312 1.49312 0 0 0 .27832-.11212c.02862-.01507.055-.03259.0827-.04956a1.48512 1.48512 0 0 0 .20978-.155c.02435-.02148.04883-.04181.07184-.065a1.50335 1.50335 0 0 0 .21984-.27332l5.70606-9.37207a1.50131 1.50131 0 0 0 .17676-1.13476l-4.05957-16.70218c-.0058-.02386-.02033-.04333-.02723-.06671a2.332 2.332 0 0 0 -.188-.40289c-.01282-.01935-.01807-.04181-.03186-.06067-.02845-.03907-.06781-.06525-.09943-.10089a1.35408 1.35408 0 0 0 -.74969-.45563c-.04487-.01135-.085-.03388-.13135-.04114-.02277-.00348-.0448.00214-.06751-.0003a2.37835 2.37835 0 0 0 -.44348.01806c-.02472.0047-.04932.00067-.074.00665l-16.70308 4.05957a1.5028 1.5028 0 0 0 -.92676.67774zm-2.61322 11.2561 13.78788-3.3518 3.35089 13.78729-13.7873 3.35235zm19.55371 7.66474-3.05749-12.58 3.499-5.7464 3.05746 12.57939zm-2.1206-19.88752-3.49945 5.74714-12.58057 3.05835 3.49939-5.748z"/><path d="m36.69629 109.5957a7.35364 7.35364 0 0 1 -2.292-2.22265l-1.78711 1.80566a8.53661 8.53661 0 0 0 2.64355 2.41113c2.96289 1.7461 5.03321 1.03516 5.9502-.52148.82812-1.40625.48535-2.77734-.97852-4.41895-.98535-1.10058-1.48047-1.61425-1.18847-2.11035.23535-.40039.82226-.38867 1.59472.06641a6.81276 6.81276 0 0 1 2.00293 1.83008l1.794-1.69043a8.06 8.06 0 0 0 -2.53028-2.19629c-2.41113-1.41992-4.65722-1.07324-5.64746.60742-.95019 1.61328-.12011 3.19727 1.20508 4.57129.94238.98242 1.21582 1.49609.98047 1.89551-.2764.46875-.87992.48437-1.74711-.02735z"/><path d="m49.69531 106.30957-2.90722-.83691-1.5752 5.47656c-1.02637 3.56836.27734 5.57519 3.24609 6.42969 3.15332.90625 5.417-.19043 6.39063-3.57422l1.59766-5.55274-2.90727-.83595-1.61914 5.6289c-.49121 1.707-1.37012 2.50391-2.69238 2.123-1.32325-.38086-1.62207-1.59863-1.15332-3.22852z"/><path d="m64.93848 110.9502a7.323 7.323 0 0 1 2.998.57714l.67774-2.35742a9.00787 9.00787 0 0 0 -3.54-.64844c-3.83789-.0625-6.8291 1.85645-6.88867 5.582a5.00767 5.00767 0 0 0 1.50586 3.75195c1.03906 1.02441 2.6455 1.626 5.01171 1.66406a14.47381 14.47381 0 0 0 4.18555-.61914l.09473-5.88477-4.6211-.07519-.03808 2.31836 1.66308.02734-.0283 1.74321a4.19822 4.19822 0 0 1 -1.12109.09375c-2.07812-.03418-3.49707-1.32032-3.46582-3.24024.03318-2.0625 1.67967-2.96289 3.56639-2.93261z"/><path d="m73.66211 107.62305-.4375 11.29785 3.07031-.84082-.03027-2.71192 3.02441-.8291 1.46387 2.31934 3.24023-.8877-6.35058-9.4375zm2.43652 5.50195-.00586-1.95508c.00489-.64844-.04785-1.44726-.043-2.09472l.03125-.00879c.34961.55078.77247 1.248 1.11817 1.7832l1.05859 1.68359z"/><path d="m91.50684 106.30176-.03223-.05567a2.84455 2.84455 0 0 0 .36039-3.20509 2.76437 2.76437 0 0 0 -2.15625-1.48633 6.53081 6.53081 0 0 0 -3.74707 1.19336 26.77119 26.77119 0 0 0 -3.17285 2.11718l5.33691 9.20313 2.58789-1.5-2.01463-3.47459.4707-.27246c.87207-.50586 1.374-.501 2.31445.45215a12.59461 12.59461 0 0 0 1.95606 1.71289l2.65722-1.541c-.38867-.25488-1.50195-1.44043-2.374-2.21093a2.85144 2.85144 0 0 0 -2.18659-.93264zm-3.12989.50293-.77539.44922-1.23633-2.13184a6.64717 6.64717 0 0 1 .96485-.63379c.88574-.51367 1.62012-.458 2.0293.248.40917.70513.04101 1.47372-.98243 2.06841z"/><path d="m24.91211 29.2832-3.52051-.71-2.49121 2.86035 8.13477 7.08594 1.83984-2.1123-2.19629-1.91309c-1.23144-1.07226-2.4248-2.09082-3.709-3.10352l.043-.04687a46.13034 46.13034 0 0 0 4.5166 1.17383l3.97363.873 2.17676-2.499-8.13477-7.08594-1.83985 2.1124 2.124 1.84961a34.49329 34.49329 0 0 0 3.44336 2.72461l-.03125.03515a31.13829 31.13829 0 0 0 -4.32908-1.24417z"/><path d="m33.96777 17.22168a5.53723 5.53723 0 0 0 -1.88379 7.9707 5.326 5.326 0 0 0 7.77247 1.5166c3.11914-2.01074 3.75-5.25293 1.98144-7.99609-1.71582-2.66113-4.80469-3.4668-7.87012-1.49121zm4.75782 7.43848c-1.3711.88379-2.97754.28222-3.98243-1.27735-1.00586-1.55859-.9082-3.29687.4502-4.17187 1.35742-.876 2.98047-.248 3.98633 1.3125 1.00488 1.55856.93066 3.24414-.4541 4.13672z"/><path d="m56.30664 17.37012 1.2832 2.42578 3.30078-.6377-5.61425-9.90332-4.05469.78321-1.30078 11.23925 3.12695-.60351.17774-2.709zm-2.93064-3.60742c.05468-.64551.0625-1.44629.11718-2.09278l.03125-.00586c.30762.57617.67579 1.30371.98047 1.86524l.92676 1.75976-2.20019.42578z"/><path d="m71.96777 10.06836a8.5034 8.5034 0 0 0 -4.74218-1.48242 26.483 26.483 0 0 0 -3.79883-.07129l-.86817 10.54a20.70451 20.70451 0 0 0 3.17383.45312 9.36358 9.36358 0 0 0 5.69922-.97558 5.203 5.203 0 0 0 2.33789-4.22168 4.55331 4.55331 0 0 0 -1.80176-4.24215zm-5.51855 7.1709a4.93375 4.93375 0 0 1 -.69922-.08887l.51562-6.26758a5.52032 5.52032 0 0 1 1.0586.00781c1.94531.16016 3.38672 1.17774 3.21094 3.31446-.19239 2.34375-1.88868 3.24707-4.08594 3.03418z"/><path d="m82.43359 11.63086a26.29878 26.29878 0 0 0 -3.6289-1.125l-3.76269 9.88379a20.67236 20.67236 0 0 0 2.92284 1.31735 9.35275 9.35275 0 0 0 5.7461.64649 5.20061 5.20061 0 0 0 3.41894-3.40625 4.553 4.553 0 0 0 -.55176-4.57618 8.5046 8.5046 0 0 0 -4.14453-2.7402zm1.61914 6.31641c-.83691 2.19824-2.71679 2.5957-4.76953 1.77929a4.89657 4.89657 0 0 1 -.64648-.27929l2.2373-5.877a5.60084 5.60084 0 0 1 1.01465.30078c1.8252.69438 2.92676 2.07231 2.16406 4.07622z"/><path d="m86.676 25.393 6.466 4.577 1.405-1.986-3.997-2.83 1.063-1.502 3.579 2.535 1.406-1.986-3.579-2.533.953-1.346 3.8 2.691 1.406-1.986-6.27-4.438z"/><path d="m101.37012 37.05566a5.20922 5.20922 0 0 0 4.63769-1.33691 4.55723 4.55723 0 0 0 1.72071-4.27637 8.50772 8.50772 0 0 0 -2.31052-4.39838 26.17626 26.17626 0 0 0 -2.63867-2.7334l-8.05863 6.8476a20.72765 20.72765 0 0 0 1.92578 2.5625 9.36528 9.36528 0 0 0 4.72364 3.33496zm1.74609-9.06347a5.61868 5.61868 0 0 1 .74512.75293c1.26367 1.4873 1.56543 3.22558-.06836 4.61426-1.793 1.52246-3.63184.96484-5.03711-.73829a4.99767 4.99767 0 0 1 -.43164-.55664z"/><path d="m106.919 38.36426a1.49954 1.49954 0 0 0 -.5752 2.042 48.41343 48.41343 0 0 1 -9.72852 59.4834 1.50018 1.50018 0 0 0 2.01758 2.2207 51.41468 51.41468 0 0 0 10.32813-63.1709 1.50076 1.50076 0 0 0 -2.04199-.5752z"/><path d="m29.36719 102.11035a1.50018 1.50018 0 0 0 2.01758-2.2207 48.41343 48.41343 0 0 1 -9.72852-59.4834 1.5001 1.5001 0 0 0 -2.61719-1.4668 51.41468 51.41468 0 0 0 10.32813 63.1709z"/></svg>